<svg width="16" height="16" viewBox="0 0 16 16" fill="none" xmlns="http://www.w3.org/2000/svg">
<path d="M6 2H2.66667C2.29848 2 2 2.29848 2 2.66667V7.33333C2 7.70152 2.29848 8 2.66667 8H6C6.36819 8 6.66667 7.70152 6.66667 7.33333V2.66667C6.66667 2.29848 6.36819 2 6 2Z" stroke="white" stroke-width="1.5" stroke-linecap="round" stroke-linejoin="round"/>
<path d="M13.0667 2H9.73332C9.36513 2 9.06665 2.29848 9.06665 2.66667V4.66667C9.06665 5.03486 9.36513 5.33333 9.73332 5.33333H13.0667C13.4348 5.33333 13.7333 5.03486 13.7333 4.66667V2.66667C13.7333 2.29848 13.4348 2 13.0667 2Z" stroke="white" stroke-width="1.5" stroke-linecap="round" stroke-linejoin="round"/>
<path d="M13.0667 7.7334H9.73332C9.36513 7.7334 9.06665 8.03188 9.06665 8.40007V13.0667C9.06665 13.4349 9.36513 13.7334 9.73332 13.7334H13.0667C13.4348 13.7334 13.7333 13.4349 13.7333 13.0667V8.40007C13.7333 8.03188 13.4348 7.7334 13.0667 7.7334Z" stroke="white" stroke-width="1.5" stroke-linecap="round" stroke-linejoin="round"/>
<path d="M6 10.3999H2.66667C2.29848 10.3999 2 10.6984 2 11.0666V13.0666C2 13.4348 2.29848 13.7332 2.66667 13.7332H6C6.36819 13.7332 6.66667 13.4348 6.66667 13.0666V11.0666C6.66667 10.6984 6.36819 10.3999 6 10.3999Z" stroke="white" stroke-width="1.5" stroke-linecap="round" stroke-linejoin="round"/>
</svg>
