<svg width="24" height="24" viewBox="0 0 24 24" fill="none" xmlns="http://www.w3.org/2000/svg">
<g clip-path="url(#clip0_64_37)">
<path d="M23.7032 0H14.4822C14.2948 0 14.1428 0.151725 14.1428 0.33885V9.54345C14.1428 9.73058 14.2948 9.8823 14.4822 9.8823H23.7032C23.8906 9.8823 24.0427 9.73058 24.0427 9.54345V0.33885C24.0427 0.151725 23.8906 0 23.7032 0Z" fill="url(#paint0_radial_64_37)"/>
<path d="M8.82505 15.5293H20.8745C21.0618 15.5293 21.214 15.3774 21.214 15.1905V11.6329C21.214 11.4459 21.0618 11.2941 20.8745 11.2941H13.0678C12.8806 11.2941 12.7284 11.1422 12.7284 10.9552V3.16234C12.7284 2.97544 12.5762 2.82349 12.389 2.82349H8.82505C8.63777 2.82349 8.4856 2.97544 8.4856 3.16234V15.1905C8.4856 15.3774 8.63777 15.5293 8.82505 15.5293Z" fill="url(#paint1_linear_64_37)"/>
<path fill-rule="evenodd" clip-rule="evenodd" d="M7.07147 3.8293V10.2889C7.07147 10.4543 6.93739 10.5882 6.77164 10.5882H0.300532C0.0335198 10.5882 -0.100553 10.2658 0.0883935 10.0772L6.5595 3.6175C6.74845 3.42895 7.07147 3.56275 7.07147 3.8293Z" fill="url(#paint2_linear_64_37)"/>
<path fill-rule="evenodd" clip-rule="evenodd" d="M13.4358 23.7001V17.2405C13.4358 17.075 13.5699 16.9412 13.7356 16.9412H20.2067C20.4737 16.9412 20.6078 17.2637 20.4189 17.4522L13.9477 23.9119C13.7588 24.1005 13.4358 23.9666 13.4358 23.7001Z" fill="url(#paint3_linear_64_37)"/>
</g>
<defs>
<radialGradient id="paint0_radial_64_37" cx="0" cy="0" r="1" gradientUnits="userSpaceOnUse" gradientTransform="translate(12.3348 11.6357) scale(21.4855 21.4474)">
<stop offset="0.07" stop-color="#1B58F4"/>
<stop offset="0.71" stop-color="#74FFE6"/>
</radialGradient>
<linearGradient id="paint1_linear_64_37" x1="26.4496" y1="-2.11706" x2="7.7989" y2="16.1057" gradientUnits="userSpaceOnUse">
<stop offset="0.32" stop-color="#4979F6"/>
<stop offset="0.99" stop-color="#4D33BD"/>
</linearGradient>
<linearGradient id="paint2_linear_64_37" x1="8.82232" y1="5.01175" x2="1.2237" y2="12.6245" gradientUnits="userSpaceOnUse">
<stop offset="0.22" stop-color="#4D29B4"/>
<stop offset="0.36" stop-color="#4C33BC"/>
<stop offset="0.58" stop-color="#4B4ED2"/>
<stop offset="0.87" stop-color="#4979F6"/>
</linearGradient>
<linearGradient id="paint3_linear_64_37" x1="18.8111" y1="15.4035" x2="11.9274" y2="22.2995" gradientUnits="userSpaceOnUse">
<stop offset="0.22" stop-color="#4D29B4"/>
<stop offset="0.36" stop-color="#4C33BC"/>
<stop offset="0.58" stop-color="#4B4ED2"/>
<stop offset="0.87" stop-color="#4979F6"/>
</linearGradient>
<clipPath id="clip0_64_37">
<rect width="24" height="24" fill="white"/>
</clipPath>
</defs>
</svg>
