<svg width="16" height="16" viewBox="0 0 16 16" fill="none" xmlns="http://www.w3.org/2000/svg">
<g clip-path="url(#clip0_90_191)">
<path d="M1.97992 8.61333C1.78309 8.73159 1.62014 8.89867 1.50684 9.09839C1.39355 9.29812 1.33376 9.52371 1.33325 9.75333V11.9133C1.33376 12.143 1.39355 12.3686 1.50684 12.5683C1.62014 12.768 1.78309 12.9351 1.97992 13.0533L3.97992 14.2533C4.18729 14.3779 4.42466 14.4437 4.66659 14.4437C4.90851 14.4437 5.14588 14.3779 5.35325 14.2533L7.99992 12.6667V9L4.66659 7L1.97992 8.61333Z" stroke="white" stroke-width="1.5" stroke-linecap="round" stroke-linejoin="round"/>
<path d="M4.66659 11.0001L1.50659 9.1001" stroke="white" stroke-width="1.5" stroke-linecap="round" stroke-linejoin="round"/>
<path d="M4.66675 11L8.00008 9" stroke="white" stroke-width="1.5" stroke-linecap="round" stroke-linejoin="round"/>
<path d="M4.66675 11V14.4467" stroke="white" stroke-width="1.5" stroke-linecap="round" stroke-linejoin="round"/>
<path d="M8 9V12.6667L10.6467 14.2533C10.854 14.3779 11.0914 14.4437 11.3333 14.4437C11.5753 14.4437 11.8126 14.3779 12.02 14.2533L14.02 13.0533C14.2168 12.9351 14.3798 12.768 14.4931 12.5683C14.6064 12.3686 14.6662 12.143 14.6667 11.9133V9.75333C14.6662 9.52371 14.6064 9.29812 14.4931 9.09839C14.3798 8.89867 14.2168 8.73159 14.02 8.61333L11.3333 7L8 9Z" stroke="white" stroke-width="1.5" stroke-linecap="round" stroke-linejoin="round"/>
<path d="M11.3333 11L8 9" stroke="white" stroke-width="1.5" stroke-linecap="round" stroke-linejoin="round"/>
<path d="M11.3333 11.0001L14.4933 9.1001" stroke="white" stroke-width="1.5" stroke-linecap="round" stroke-linejoin="round"/>
<path d="M11.3333 11V14.4467" stroke="white" stroke-width="1.5" stroke-linecap="round" stroke-linejoin="round"/>
<path d="M5.31341 2.94657C5.11659 3.06482 4.95363 3.2319 4.84034 3.43162C4.72705 3.63135 4.66725 3.85695 4.66675 4.08657V6.9999L8.00008 8.9999L11.3334 6.9999V4.08657C11.3329 3.85695 11.2731 3.63135 11.1598 3.43162C11.0465 3.2319 10.8836 3.06482 10.6867 2.94657L8.68675 1.74657C8.47937 1.62197 8.24201 1.55615 8.00008 1.55615C7.75816 1.55615 7.52079 1.62197 7.31341 1.74657L5.31341 2.94657Z" stroke="white" stroke-width="1.5" stroke-linecap="round" stroke-linejoin="round"/>
<path d="M8.00009 5.33335L4.84009 3.43335" stroke="white" stroke-width="1.5" stroke-linecap="round" stroke-linejoin="round"/>
<path d="M8 5.33335L11.16 3.43335" stroke="white" stroke-width="1.5" stroke-linecap="round" stroke-linejoin="round"/>
<path d="M8 8.99992V5.33325" stroke="white" stroke-width="1.5" stroke-linecap="round" stroke-linejoin="round"/>
</g>
<defs>
<clipPath id="clip0_90_191">
<rect width="16" height="16" fill="white"/>
</clipPath>
</defs>
</svg>
